<svg xmlns="http://www.w3.org/2000/svg" version="1.1" xmlns:xlink="http://www.w3.org/1999/xlink" xmlns:svgjs="http://svgjs.dev/svgjs" width="1500" height="1500" viewBox="0 0 1500 1500"><rect width="1500" height="1500" fill="#ffffff"></rect><g transform="matrix(0.6666666666666666,0,0,0.6666666666666666,249.39393939393938,515.1710724190422)"><svg viewBox="0 0 396 186" data-background-color="#ffffff" preserveAspectRatio="xMidYMid meet" height="704" width="1500" xmlns="http://www.w3.org/2000/svg" xmlns:xlink="http://www.w3.org/1999/xlink"><g id="tight-bounds" transform="matrix(1,0,0,1,0.2400000000000091,0.06430510665803979)"><svg viewBox="0 0 395.52 185.87138978668392" height="185.87138978668392" width="395.52"><g><svg viewBox="0 0 395.52 185.87138978668392" height="185.87138978668392" width="395.52"><g><svg viewBox="0 0 395.52 185.87138978668392" height="185.87138978668392" width="395.52"><g id="textblocktransform"><svg viewBox="0 0 395.52 185.87138978668392" height="185.87138978668392" width="395.52" id="textblock"><g><svg viewBox="0 0 395.52 185.87138978668392" height="185.87138978668392" width="395.52"><g transform="matrix(1,0,0,1,0,0)"><svg width="395.52" viewBox="3.9 -35.8 77.35 36.349999999999994" height="185.87138978668392" data-palette-color="#fe340a"><path d="M3.9 0L3.9-35.05 13.3-35.05Q18.95-35.05 21.93-31.95 24.9-28.85 24.9-23.7L24.9-23.7 24.9-10Q24.9 0 14.3 0L14.3 0 3.9 0ZM22.1-24.2Q22.1-27.05 20.88-28.93 19.65-30.8 17.75-31.65 15.85-32.5 13.8-32.5L13.8-32.5 6.7-32.5 6.7-2.5 13.5-2.5Q17.15-2.5 19.63-3.93 22.1-5.35 22.1-9.5L22.1-9.5 22.1-24.2ZM50.75-35.05L53.55-35.05 53.55-9.3Q53.55-4.25 50.47-1.95 47.4 0.35 43.05 0.35L43.05 0.35Q38.7 0.35 35.6-1.95 32.5-4.25 32.5-9.3L32.5-9.3 32.5-35.05 35.3-35.05 35.3-8.9Q35.3-5.85 37.52-4 39.75-2.15 43-2.15L43-2.15Q46.25-2.15 48.5-4 50.75-5.85 50.75-8.9L50.75-8.9 50.75-35.05ZM81.25-9.25Q81.25-4.2 78.17-1.83 75.09 0.55 70.8 0.55L70.8 0.55Q68.09 0.55 65.69-0.43 63.3-1.4 61.77-3.6 60.24-5.8 60.24-9.25L60.24-9.25 60.24-25.35Q60.24-30.5 63.07-33.15 65.89-35.8 70.84-35.8L70.84-35.8Q75.8-35.8 78.52-33 81.25-30.2 81.25-25.3L81.25-25.3 81.25-9.25ZM78.5-25.8Q78.5-29.45 76.37-31.3 74.25-33.15 70.75-33.15L70.75-33.15Q67.25-33.15 65.14-31.3 63.05-29.45 63.05-25.8L63.05-25.8 63.05-9.3Q63.05-5.75 65.22-3.93 67.39-2.1 70.75-2.1L70.75-2.1Q74.14-2.1 76.32-3.88 78.5-5.65 78.5-9.35L78.5-9.35 78.5-25.8Z" opacity="1" transform="matrix(1,0,0,1,0,0)" fill="#000000" class="wordmark-text-0" data-fill-palette-color="primary" id="text-0"></path></svg></g></svg></g></svg></g></svg></g></svg></g><defs></defs></svg><rect width="395.52" height="185.87138978668392" fill="none" stroke="none" visibility="hidden"></rect></g></svg></g></svg>